<svg width="380" height="60" viewBox="0 0 380 60" fill="none" xmlns="http://www.w3.org/2000/svg">
<path fill-rule="evenodd" clip-rule="evenodd" d="M31.2688 41.7266V29.8668H35.3965L36.0145 25.2448H31.2688V22.2938C31.2688 20.9556 31.654 20.0436 33.6438 20.0436L36.1816 20.0426V15.9087C35.7426 15.8524 34.2362 15.7266 32.4837 15.7266C28.8247 15.7266 26.3198 17.8805 26.3198 21.8362V25.2448H22.1816V29.8668H26.3198V41.7266H31.2688Z" fill="white"/>
<path fill-rule="evenodd" clip-rule="evenodd" d="M105.897 41.4531C116.463 41.4531 122.241 32.6052 122.241 24.9329C122.241 24.6815 122.236 24.4313 122.225 24.1823C123.347 23.3628 124.322 22.3402 125.091 21.176C124.061 21.6382 122.954 21.9496 121.792 22.0901C122.978 21.3714 123.888 20.2339 124.318 18.8782C123.208 19.5433 121.979 20.0271 120.67 20.2876C119.622 19.1589 118.129 18.4531 116.477 18.4531C113.304 18.4531 110.731 21.0535 110.731 24.2589C110.731 24.7147 110.782 25.1577 110.88 25.5828C106.106 25.3402 101.873 23.0296 99.0396 19.5164C98.5458 20.3743 98.2616 21.3714 98.2616 22.4348C98.2616 24.4492 99.2758 26.2275 100.818 27.2678C99.8757 27.2385 98.9903 26.9768 98.2161 26.5415C98.2149 26.5657 98.2149 26.59 98.2149 26.6154C98.2149 29.4278 100.195 31.7754 102.824 32.3078C102.341 32.4405 101.833 32.512 101.309 32.512C100.939 32.512 100.579 32.475 100.229 32.4073C100.961 34.7141 103.081 36.3928 105.596 36.4401C103.629 37.9974 101.153 38.9256 98.4611 38.9256C97.9977 38.9256 97.5404 38.8987 97.0908 38.8451C99.6332 40.4919 102.652 41.4531 105.897 41.4531Z" fill="white"/>
<path fill-rule="evenodd" clip-rule="evenodd" d="M199.893 23.5888V27.1915H196.194V29.714H199.893V33.3185H202.666V29.714H206.363V27.1014H202.666V23.5888H199.893ZM183.624 26.3811V30.4351H189.17C188.8 32.7774 186.674 34.4892 183.624 34.4892C180.296 34.4892 177.523 31.6964 177.523 28.4531C177.523 25.2099 180.204 22.4171 183.624 22.4171C185.195 22.4171 186.489 22.8675 187.599 23.9486L190.557 21.0657C188.708 19.4441 186.397 18.4531 183.624 18.4531C177.985 18.4531 173.363 22.9576 173.363 28.4531C173.363 33.9486 177.985 38.4531 183.624 38.4531C189.632 38.4531 193.514 34.309 193.514 28.6333C193.514 27.9126 193.422 27.1018 193.33 26.3811H183.624Z" fill="white"/>
<path fill-rule="evenodd" clip-rule="evenodd" d="M267.652 41.7266H273.036V33.1351C273.036 30.87 273.466 28.6764 276.27 28.6764C279.033 28.6764 279.069 31.2668 279.069 33.2807V41.7266H284.454V32.2003C284.454 27.5248 283.447 23.9276 277.99 23.9276C275.369 23.9276 273.611 25.367 272.892 26.7325H272.82V24.3594H267.652V41.7266ZM261.579 15.7266C263.301 15.7266 264.702 17.1289 264.702 18.8552C264.702 20.5828 263.301 21.9854 261.579 21.9854C259.852 21.9854 258.454 20.5828 258.454 18.8552C258.454 17.1289 259.852 15.7266 261.579 15.7266ZM258.883 41.7266H264.272V24.3594H258.883V41.7266Z" fill="white"/>
<path fill-rule="evenodd" clip-rule="evenodd" d="M334.363 24.7635C334.363 21.8216 336.724 19.4531 339.656 19.4531H360.071C363.003 19.4531 365.363 21.8216 365.363 24.7635V36.1428C365.363 39.0847 363.003 41.4531 360.071 41.4531H339.656C336.724 41.4531 334.363 39.0847 334.363 36.1428V24.7635ZM355.534 30.4531L347.217 25.5221V35.3842L355.534 30.4531Z" fill="white"/>
</svg>
